<?xml version="1.0" encoding="UTF-8"?>
<svg width="141px" height="72px" viewBox="0 0 141 72" version="1.1" xmlns="http://www.w3.org/2000/svg" xmlns:xlink="http://www.w3.org/1999/xlink">
    <title>Game Facto Logo Copy 2</title>
    <g id="Page-1" stroke="none" stroke-width="1" fill="none" fill-rule="evenodd">
        <g id="GameFacto-Desktop-1600" transform="translate(-38.000000, -21.000000)">
            <g id="Group-17">
                <g id="Game-Facto-Logo-Copy-2" transform="translate(38.000000, 21.000000)">
                    <g id="Group-3" transform="translate(63.480000, 14.080000)" fill="#000000" fill-rule="nonzero">
                        <path d="M8.9863525,0.0447767184 C8.9863525,0.0447767184 9.2167525,0.0447767184 9.2628325,0.0447767184 C9.3089125,0.0447767184 9.2628325,0.183016718 9.2628325,0.206056718 C9.2628325,0.229096718 9.8618725,0.206056718 10.0461925,0.206056718 C10.575815,0.314727905 11.0988859,0.45318784 11.6129125,0.620776718 C12.1442315,0.890682333 12.6461177,1.214978 13.1105125,1.58845672 C13.1105125,1.58845672 13.3639525,1.74973672 13.4561125,1.86493672 C13.7776769,2.16041667 14.0430786,2.5116835 14.2394725,2.90173672 C14.2394725,3.20125672 13.9169125,3.36253672 13.6404325,3.68509672 C13.2931012,4.16087692 12.9078443,4.60777492 12.4884325,5.02141672 C12.4884325,5.02141672 12.2810725,5.02141672 12.2349925,5.02141672 C12.1889125,5.02141672 11.7972325,5.64349672 11.5207525,5.64349672 C11.2442725,5.64349672 10.2996325,4.72189672 9.7927525,4.51453672 C9.7927525,4.51453672 9.5393125,4.51453672 9.5162725,4.51453672 C8.45268439,4.20908773 7.3074658,4.51980595 6.5441125,5.32093672 C5.74915111,6.14006903 5.25394363,7.20354741 5.1386725,8.33917672 C5.1386725,8.52349672 5.1386725,8.75389672 5.1386725,8.93821672 C5.1386725,9.12253672 5.0004325,9.12253672 4.9773925,9.28381672 C4.9543525,9.44509672 4.9773925,9.28381672 4.9773925,9.28381672 C4.86641513,9.49806988 4.80351278,9.73395366 4.7930725,9.97501672 C4.7930725,10.3436567 4.7930725,10.7583767 4.7930725,11.1270167 C4.75070649,11.9037164 4.83632842,12.6820975 5.0465125,13.4310167 C5.09444477,13.5245398 5.15662755,13.6100411 5.2308325,13.6844567 C5.26493715,13.8889166 5.31895421,14.0895513 5.3921125,14.2834967 C5.58965508,14.7127474 5.86280491,15.1029615 6.1985125,15.4354967 C6.5194722,15.6814026 6.86729686,15.8900974 7.2353125,16.0575767 C7.56151812,16.2636179 7.90916138,16.4335768 8.2721125,16.5644567 C8.88214872,16.6680155 9.50527628,16.6680155 10.1153125,16.5644567 C10.541764,16.3820832 10.9319668,16.1245494 11.2673125,15.8041367 C11.2673125,15.8041367 11.2673125,15.5967767 11.2673125,15.5276567 C11.2673125,15.4585367 11.5898725,15.2511767 11.6129125,15.1820567 C11.6359525,15.1129367 11.6129125,14.8594967 11.6129125,14.7212567 C11.6129125,14.5830167 11.9585125,14.1452567 11.7972325,13.8687767 C11.6359525,13.5922967 10.9447525,13.4770967 10.3917925,13.4310167 C9.8388325,13.3849367 9.2167525,13.4310167 8.9172325,13.1545367 C8.6177125,12.8780567 8.7329125,12.1407767 8.7329125,11.4034967 C8.7329125,11.1270167 8.5485925,9.97501672 8.7329125,9.72157672 C9.45943116,9.62674739 10.1951938,9.62674739 10.9217125,9.72157672 C11.1521125,9.72157672 11.4055525,9.85981672 11.7050725,9.90589672 C12.4193125,9.90589672 13.5021925,9.90589672 14.3316325,10.0902167 C14.3316325,10.0902167 14.5620325,10.0902167 14.5850725,10.0902167 C14.6081125,10.0902167 14.5850725,10.2054167 14.5850725,10.2514967 C15.0689125,10.3897367 15.9905125,10.1362967 15.9905125,10.7583767 C15.9905125,10.8966167 15.9905125,10.9426967 15.9905125,11.0578967 L16.1748325,11.1961367 C16.2163318,11.283625 16.2163318,11.3851285 16.1748325,11.4726167 C16.2784945,12.6992305 16.2784945,13.932403 16.1748325,15.1590167 C16.1748325,15.4815767 15.8983525,15.8732567 15.8061925,16.2879767 C15.7140325,16.7026967 15.8061925,16.7026967 15.8061925,16.9100567 C15.5923417,17.5843438 15.2901989,18.2273657 14.9076325,18.8223767 C14.9076325,18.8223767 14.7693925,18.9606167 14.7233125,19.0066967 C14.5872657,19.291617 14.3811559,19.5373633 14.1242725,19.7209367 C13.9629925,19.7209367 13.5713125,20.2969367 13.4330725,20.4121367 C13.2948325,20.5273367 13.0183525,20.4121367 12.8109925,20.5734167 C12.6036325,20.7346967 12.5114725,20.8959767 12.3962725,20.9420567 C12.2810725,20.9881367 12.0737125,20.9420567 11.9354725,20.9420567 C11.7972325,20.9420567 11.7972325,21.0802967 11.6589925,21.1263767 C11.0527647,21.1609371 10.4450603,21.1609371 9.8388325,21.1263767 C9.1706725,21.1263767 8.1108325,21.2646167 7.7421925,21.0111767 C7.3735525,20.7577367 7.2353125,21.0111767 6.9588325,21.0111767 C6.6823525,21.0111767 6.5901925,20.8038167 6.4289125,20.7577367 C5.86052398,20.5846968 5.30599206,20.3690455 4.7700325,20.1126167 C4.7700325,20.1126167 4.8161125,19.8591767 4.8161125,19.8591767 C4.8161125,19.8591767 4.6087525,19.8591767 4.4705125,19.6978967 C4.03165221,19.3830395 3.62286942,19.0282469 3.2493925,18.6380567 C3.15120661,18.4683046 3.06646747,18.2911228 2.9959525,18.1081367 C2.88489224,17.9809439 2.7613986,17.8651686 2.6273125,17.7625367 C2.6273125,17.7625367 2.6273125,17.5782167 2.6273125,17.5090967 C2.45786448,17.3193333 2.31096569,17.1105824 2.1895525,16.8870167 C1.97879108,16.3455425 1.80181142,15.7915192 1.6596325,15.2281367 C1.6596325,15.0438167 1.5213925,14.9286167 1.4753125,14.7673367 C1.44003879,14.4781435 1.37834086,14.1927906 1.2909925,13.9148567 C1.2909925,13.7766167 1.1527525,13.6844567 1.1297125,13.5462167 C1.00491759,12.7383886 0.950952333,11.9212004 0.968432502,11.1039767 C0.814081373,9.08893766 1.04874388,7.06301797 1.6596325,5.13661672 L1.8439525,4.81405672 C2.06707605,4.19525948 2.35271323,3.60082536 2.6964325,3.03997672 L2.8807525,2.69437672 L3.0650725,2.69437672 C3.31111225,2.25210842 3.63959077,1.86106256 4.0327525,1.54237672 C4.37688114,1.14753084 4.79083548,0.819491547 5.2538725,0.574696718 C5.99026548,0.285058736 6.76791422,0.113976012 7.5578725,0.0678167184 C8.02993913,-0.0140798511 8.51189029,-0.0218532568 8.9863525,0.0447767184 Z" id="Path"></path>
                        <path d="M26.7041125,2.04925672 C26.7041125,2.04925672 26.7041125,2.18749672 26.7041125,2.23357672 C26.7041125,2.27965672 27.5335525,2.23357672 27.9252325,2.23357672 C28.3169125,2.23357672 28.2708325,2.44093672 28.4321125,2.48701672 C28.5933925,2.53309672 29.2154725,2.74045672 29.5841125,2.92477672 C30.9044293,3.66982325 31.9534328,4.81565793 32.5793125,6.19645672 C32.8251429,6.72371164 33.0255494,7.2709755 33.1783525,7.83229672 C33.3782757,8.51880376 33.5246348,9.21978721 33.6161125,9.92893672 C33.6161125,9.92893672 33.6161125,9.92893672 33.6161125,10.1132567 C33.6340405,10.1733889 33.6340405,10.2374445 33.6161125,10.2975767 C33.6161125,10.4818967 33.8004325,10.5279767 33.8004325,10.6431767 C33.8004325,10.7583767 33.8004325,10.8735767 33.8004325,11.0809367 C33.8380764,11.5522312 33.8995954,12.0213135 33.9847525,12.4863767 C33.9847525,13.4770967 33.9847525,14.4447767 33.9847525,15.4585367 C33.9731759,15.6657351 33.9731759,15.8734183 33.9847525,16.0806167 C33.9847525,16.0806167 34.1460325,16.3801367 34.1460325,16.4262167 C34.1460325,16.4722967 34.0077925,16.6566167 33.9847525,16.9330967 C33.9617125,17.2095767 33.9847525,16.9330967 33.9847525,17.0482967 C33.9847525,17.1634967 33.8465125,18.1081367 33.8004325,18.6150167 C33.7543525,19.1218967 33.8004325,19.3522967 33.8004325,19.8361367 C33.6621925,20.8729367 33.8004325,20.9881367 32.6714725,21.0802967 C31.9802725,21.0802967 31.3351525,21.0802967 30.5517925,21.0802967 C29.7684325,21.0802967 29.4689125,21.0802967 29.4228325,20.2738967 C29.4228325,19.9974167 29.6532325,19.6748567 29.4228325,19.5596567 C29.1924325,19.4444567 28.5933925,19.8130967 28.5242725,19.8361367 C27.1203623,20.4249526 25.5939545,20.662218 24.0775525,20.5273367 L23.2941925,20.5273367 C22.4839455,20.413219 21.6932021,20.1883998 20.9441125,19.8591767 C20.5666261,19.7174233 20.2329516,19.4790844 19.9764325,19.1679767 C19.9764325,19.1679767 19.7460325,19.1679767 19.6538725,18.9836567 C19.4187005,18.7458842 19.2101118,18.4832169 19.0317925,18.2002967 C18.7302099,17.9207613 18.5144402,17.5611451 18.4097125,17.1634967 C18.098604,16.0090493 18.098604,14.7928241 18.4097125,13.6383767 C18.6003243,13.190191 18.8651582,12.7773616 19.1930725,12.4172567 C19.1930725,12.4172567 19.3082725,12.1407767 19.3773925,12.0716567 C19.4465125,12.0025367 19.8151525,11.7951767 19.9764325,11.6338967 C20.239012,11.3590893 20.5420263,11.1260014 20.8749925,10.9426967 C21.5845496,10.5765828 22.3154671,10.2534404 23.0637925,9.97501672 C23.8100167,9.73157596 24.5842841,9.58446515 25.3677925,9.53725672 C26.2781794,9.467302 27.1938983,9.52938464 28.0865125,9.72157672 C28.4376333,9.77681388 28.7952317,9.77681388 29.1463525,9.72157672 C29.3306725,9.51421672 28.8007525,8.36221672 28.7085925,8.13181672 C28.4346618,7.53154294 27.9629184,7.04353253 27.3722725,6.74941672 L26.9345125,6.49597672 C26.1021906,6.36922386 25.2554744,6.36922386 24.4231525,6.49597672 C23.9453801,6.61386562 23.4927249,6.81678001 23.0868325,7.09501672 L22.3034725,7.78621672 C22.3034725,7.78621672 22.3034725,7.94749672 22.3034725,7.97053672 C22.0400679,8.04670212 21.7604771,8.04670212 21.4970725,7.97053672 C21.4970725,7.97053672 21.1745125,7.64797672 20.9441125,7.55581672 C20.7137125,7.46365672 20.7597925,7.55581672 20.6906725,7.55581672 L20.5063525,7.37149672 L20.0685925,7.18717672 C20.0685925,7.18717672 20.0685925,7.07197672 19.9073125,7.00285672 C19.7460325,6.93373672 19.4234725,6.68029672 19.1009125,6.47293672 C18.9331624,6.33044141 18.7926483,6.15870191 18.6861925,5.96605672 C18.6861925,5.71261672 19.0778725,5.27485672 19.2852325,4.99837672 C19.4925925,4.72189672 19.4234725,4.69885672 19.4695525,4.62973672 C19.8367524,4.28957689 20.2382631,3.98844388 20.6676325,3.73117672 C20.8564015,3.57088357 21.0566128,3.42457526 21.2666725,3.29341672 L21.8887525,2.94781672 C22.1427064,2.84260981 22.4046598,2.75786019 22.6721125,2.69437672 C22.9255525,2.69437672 23.1329125,2.37181672 23.2941925,2.32573672 C23.7923597,2.28032452 24.2936253,2.28032452 24.7917925,2.32573672 C24.7917925,2.32573672 24.7917925,2.32573672 24.9761125,2.32573672 C25.1604325,2.32573672 26.3585125,1.81885672 26.7041125,2.04925672 Z M24.4001125,13.3388567 C24.2618725,13.3388567 24.1005925,13.5462167 23.9393125,13.5922967 C23.7780325,13.6383767 23.1559525,13.9148567 22.9025125,14.3065367 C22.8236899,14.4686599 22.7619185,14.6385312 22.7181925,14.8134167 C22.7181925,15.0668567 22.5338725,15.1590167 22.5338725,15.3433367 C22.5932359,15.7648703 22.816848,16.145839 23.1559525,16.4031767 C23.4817499,16.6862155 23.8678884,16.8911053 24.2849125,17.0022167 C24.9558431,17.1174205 25.6415019,17.1174205 26.3124325,17.0022167 C26.4967525,17.0022167 26.6119525,16.8409367 26.8423525,16.7487767 C27.0727525,16.6566167 27.3261925,16.7487767 27.5335525,16.7487767 C27.78186,16.6116405 28.0204969,16.4576813 28.2477925,16.2879767 C28.6394725,16.0806167 29.0081125,15.8732567 29.2845925,15.6889367 C29.6608018,15.3892262 29.8671859,14.9248618 29.8375525,14.4447767 C29.8375525,14.2604567 29.5149925,14.2604567 29.1233125,14.0300567 C28.9015807,13.8708798 28.6707922,13.7247137 28.4321125,13.5922967 C28.4321125,13.5922967 28.0865125,13.5922967 27.9021925,13.4770967 L26.8423525,13.3388567 C26.6119525,13.3388567 26.4967525,13.1545367 26.3124325,13.1545367 C25.9918185,13.1044292 25.6653665,13.1044292 25.3447525,13.1545367 C25.3447525,13.1545367 25.3447525,13.3158167 25.1604325,13.3388567 C24.9761125,13.3618967 24.5844325,13.2927767 24.3540325,13.3388567 L24.4001125,13.3388567 Z" id="Shape"></path>
                        <path d="M54.3751525,4.35325672 C54.3751525,4.35325672 54.5133925,4.51453672 54.5364325,4.51453672 C55.0663525,4.51453672 55.8957925,4.51453672 56.4717925,4.51453672 L56.8173925,4.67581672 C57.3416552,4.85732934 57.8439764,5.09689791 58.3149925,5.39005672 C58.6598019,5.59495749 58.95801,5.86962283 59.1905125,6.19645672 C59.6984743,6.88055293 60.0521881,7.66658365 60.2273125,8.50045672 C60.4039635,9.19561608 60.5196023,9.90486745 60.5729125,10.6201367 C60.7918707,13.1575018 60.7918707,15.7090116 60.5729125,18.2463767 C60.5927069,18.8878935 60.5385908,19.5295567 60.4116325,20.1586967 C60.2564132,20.2528209 60.0841756,20.3154528 59.9047525,20.3430167 C59.5210658,20.3649524 59.1364392,20.3649524 58.7527525,20.3430167 C58.5914725,20.3430167 58.3841125,20.3430167 58.2228325,20.3430167 C57.5316325,20.3430167 56.6561125,20.5503767 56.3796325,20.3430167 C56.1031525,20.1356567 56.3796325,19.7209367 56.3796325,19.0297367 C56.3796325,17.4630167 56.3796325,15.9193367 56.3796325,14.4217367 C56.3796325,13.9839767 56.5639525,13.4540567 56.5639525,13.2006167 C56.5639525,12.9471767 56.4026725,12.5554967 56.3796325,12.2329367 C56.3565925,11.9103767 56.3796325,11.4726167 56.3796325,11.0809367 C56.3171232,10.3761518 56.1050478,9.69279767 55.7575525,9.07645672 C55.6801736,9.01227649 55.5950245,8.95809066 55.5041125,8.91517672 C55.5041125,8.66173672 55.5041125,8.61565672 54.9741925,8.33917672 C54.4442725,8.06269672 54.5133925,7.94749672 54.1908325,8.08573672 C53.8682725,8.22397672 54.1908325,8.27005672 54.1908325,8.27005672 C54.1908325,8.27005672 53.7761125,8.27005672 53.5917925,8.27005672 C53.4074725,8.27005672 53.4305125,8.40829672 53.3383525,8.45437672 C53.2461925,8.50045672 52.9927525,8.45437672 52.8084325,8.59261672 C52.5397726,8.76200492 52.2988582,8.97183361 52.0941925,9.21469672 C52.0941925,9.21469672 52.0941925,9.42205672 52.0941925,9.49117672 C51.8574501,9.75585131 51.6560859,10.0501528 51.4951525,10.3666967 C51.4726581,10.8041677 51.4726581,11.2425057 51.4951525,11.6799767 C51.4951525,12.6015767 51.2417125,14.2374167 51.2186725,15.3663767 C51.2186725,15.7119767 51.2186725,18.2924567 51.2186725,19.2140567 C51.2186725,19.4905367 51.4490725,20.0665367 51.2186725,20.3430167 C50.9882725,20.6194967 49.9514725,20.5273367 49.3754725,20.5273367 C48.7703409,20.589425 48.1604441,20.589425 47.5553125,20.5273367 C47.3959429,20.1412149 47.3326917,19.7221756 47.3709925,19.3062167 C47.3709925,18.1311767 47.6013925,16.5183767 47.5553125,15.3663767 C47.5553125,14.8134167 47.3940325,14.1913367 47.3709925,13.5001367 C47.3505818,12.3873514 47.1958617,11.2811029 46.9101925,10.2054167 C46.7624242,9.61902796 46.3900405,9.11424112 45.8733925,8.79997672 C45.7581925,8.79997672 45.5277925,8.54653672 45.4356325,8.54653672 C44.8291004,8.40748244 44.1989646,8.40748244 43.5924325,8.54653672 C43.248042,8.6383837 42.9211138,8.78627979 42.6247525,8.98429672 C42.3455893,9.12358919 42.0828432,9.29360139 41.8413925,9.49117672 C41.5578585,9.83226928 41.325057,10.2125118 41.1501925,10.6201367 C40.9218314,12.340592 40.9218314,14.0836814 41.1501925,15.8041367 C41.1501925,16.1266967 41.1501925,16.6105367 41.1501925,17.0943767 C41.2582565,17.8579329 41.31981,18.6273516 41.3345125,19.3983767 C41.3705381,19.8046196 41.3705381,20.2132538 41.3345125,20.6194967 C40.6066778,20.6912733 39.8735472,20.6912733 39.1457125,20.6194967 L38.7079525,20.6194967 C38.2031644,20.6536123 37.6963024,20.5990271 37.2103525,20.4582167 C36.9524044,20.0322649 36.8021493,19.5498668 36.7725925,19.0527767 C36.7725925,17.9468567 36.7725925,16.7487767 36.7725925,15.5506967 C36.6113125,13.2466967 36.5882725,11.2191767 36.5882725,8.63869672 C36.4931438,7.54251671 36.4931438,6.44015672 36.5882725,5.34397672 C36.5882725,5.22877672 37.2564325,5.13661672 37.5559525,5.09053672 C37.8554725,5.04445672 38.1780325,5.09053672 38.3393125,5.09053672 C38.5005925,5.09053672 38.3393125,4.92925672 38.3393125,4.90621672 C39.0535525,4.90621672 40.6433125,4.65277672 40.6433125,5.09053672 C40.6433125,5.52829672 40.6433125,5.39005672 40.6433125,5.52829672 C40.7585125,6.08125672 40.6433125,6.40381672 41.3114725,5.96605672 L41.6109925,5.80477672 C41.8175501,5.62896838 42.0414171,5.47457732 42.2791525,5.34397672 C42.5822513,5.18507985 42.9090153,5.07615852 43.2468325,5.02141672 C44.3482235,4.78821343 45.4862415,4.78821343 46.5876325,5.02141672 C46.7258725,5.02141672 46.7028325,5.02141672 46.7489125,5.02141672 C46.7949925,5.02141672 47.0023525,5.02141672 47.2788325,5.02141672 C47.5553125,5.02141672 47.5783525,5.39005672 47.7165925,5.45917672 C47.8548325,5.52829672 48.2465125,5.66653672 48.3386725,5.73565672 C48.4308325,5.80477672 48.4999525,5.96605672 48.8685925,6.42685672 C49.2372325,6.88765672 49.2372325,7.02589672 49.4676325,7.02589672 C49.6980325,7.02589672 50.5735525,5.98909672 51.0573925,5.64349672 C51.2165355,5.54066368 51.3865203,5.45567127 51.5642725,5.39005672 C51.8669744,5.20371174 52.192142,5.05661212 52.5319525,4.95229672 C52.7162725,4.95229672 52.8545125,4.69885672 52.9697125,4.67581672 C53.2919766,4.65627789 53.6151284,4.65627789 53.9373925,4.67581672 C53.9373925,4.67581672 53.9373925,4.67581672 54.1217125,4.67581672 C54.1637458,4.54083819 54.253951,4.42603163 54.3751525,4.35325672 Z" id="Path"></path>
                        <path d="M71.2404325,4.16893672 C71.3322297,4.15737136 71.4251153,4.15737136 71.5169125,4.16893672 C71.5169125,4.16893672 71.5169125,4.35325672 71.5169125,4.35325672 C71.5169125,4.35325672 72.2541925,4.35325672 72.4845925,4.35325672 C72.7149925,4.35325672 72.8532325,4.60669672 73.0836325,4.69885672 C73.4937724,4.8787271 73.8743867,5.11952391 74.2125925,5.41309672 C74.5581925,5.73565672 74.9268325,6.19645672 75.2724325,6.54205672 C75.3346306,6.62902846 75.3886222,6.72158543 75.4337125,6.81853672 C75.7030281,7.37031341 75.9116115,7.94971156 76.0557925,8.54653672 C76.2725223,9.38066889 76.3349884,10.2473865 76.2401125,11.1039767 C76.2861925,11.5944162 76.2861925,12.0880972 76.2401125,12.5785367 C76.2401125,12.5785367 73.7287525,12.5785367 73.4292325,12.5785367 C72.4154725,12.5785367 71.4708325,12.4402967 70.8026725,12.5785367 C70.1345125,12.7167767 69.6737125,12.7167767 69.3972325,12.7167767 C68.749834,12.6739231 68.0996161,12.7126265 67.4618725,12.8319767 L67.0241125,12.9471767 C67.0241125,12.9471767 67.0241125,13.1084567 67.0241125,13.1314967 C67.0241125,13.1545367 66.8628325,13.5231767 66.8628325,13.4540567 C66.9485758,14.0524671 67.1606281,14.6257939 67.4849125,15.1359767 C67.7792906,15.468078 68.1633173,15.7080947 68.5908325,15.8271767 C69.3933197,16.0452639 70.2301174,16.1078282 71.0561125,16.0114967 C71.8818496,15.848719 72.6657821,15.5194674 73.3601125,15.0438167 C73.6135525,14.8825367 74.0973925,14.4447767 74.2356325,14.4447767 C74.4980399,14.5860202 74.7386153,14.7645117 74.9498725,14.9746967 C75.1111525,15.1359767 75.2954725,15.4585367 75.4567525,15.6658967 L75.7332325,16.0114967 C75.7332325,16.0114967 75.7332325,16.2188567 75.7332325,16.2649367 C75.8842535,16.4202381 76.0087858,16.5992532 76.1018725,16.7948567 C76.1018725,16.9100567 76.1018725,17.0482967 76.1018725,17.1634967 L76.2861925,17.1634967 C76.1329269,17.5458621 75.9232395,17.9031073 75.6641125,18.2233367 C75.5258725,18.2233367 75.2724325,18.4537367 75.1341925,18.5689367 L74.6964325,18.9375767 L74.1665125,19.2831767 C73.7748325,19.4674967 73.4061925,19.5366167 72.9453925,19.7209367 C72.4845925,19.9052567 72.5537125,19.9513367 72.3924325,19.9743767 C72.2311525,19.9974167 71.6321125,19.9743767 71.2865125,19.9743767 C70.4451311,20.1448953 69.5823773,20.1837581 68.7290725,20.0895767 C68.5447525,20.0895767 68.3143525,19.9282967 68.1300325,19.9052567 C67.7608181,19.9304995 67.3899472,19.9150465 67.0241125,19.8591767 L66.6093925,19.6748567 C66.3023168,19.5896774 66.0019746,19.4818623 65.7108325,19.3522967 C65.7108325,19.3522967 65.7108325,19.1679767 65.7108325,19.1679767 C65.2888969,18.9297465 64.926519,18.5988797 64.6509925,18.2002967 C64.3947385,17.91639 64.1918082,17.5885796 64.0519525,17.2326167 C64.0359709,17.0871343 64.0359709,16.9403391 64.0519525,16.7948567 L63.8906725,16.4492567 C63.8752267,16.3037455 63.8752267,16.157008 63.8906725,16.0114967 C63.8906725,15.7810967 63.6141925,15.2742167 63.5450725,14.8594967 C63.4759525,14.4447767 63.5450725,14.3756567 63.5450725,14.1682967 C63.5450725,13.9609367 63.5450725,14.0070167 63.5450725,14.0070167 C63.4290976,13.5708142 63.3671932,13.1220074 63.3607525,12.6706967 C63.3607525,12.4863767 63.4989925,12.0946967 63.5450725,11.7260567 C63.5732684,11.2855348 63.6271198,10.847031 63.7063525,10.4127767 C63.8558893,9.84882379 64.0405701,9.29478111 64.2593125,8.75389672 C64.2940583,8.65188596 64.3488984,8.55787432 64.4205925,8.47741672 C64.5130746,8.20685336 64.6287025,7.94476364 64.7661925,7.69405672 C64.7661925,7.69405672 64.9505125,7.48669672 65.0426725,7.34845672 C65.2605647,7.09858264 65.4912748,6.86018218 65.7338725,6.63421672 C65.7338725,6.63421672 65.7338725,6.44989672 65.7338725,6.38077672 C65.7338725,6.31165672 66.2407525,5.89693672 66.4941925,5.66653672 C67.6103878,4.93147578 68.8786105,4.45884621 70.2036325,4.28413672 C70.543291,4.20388524 70.8914422,4.16520177 71.2404325,4.16893672 L71.2404325,4.16893672 Z M68.9364325,8.08573672 C68.7521125,8.08573672 68.3834725,8.24701672 68.2221925,8.50045672 C68.0609125,8.75389672 67.7153125,9.53725672 67.8305125,9.67549672 C68.2675883,9.71011074 68.7067167,9.71011074 69.1437925,9.67549672 L69.4663525,9.67549672 C69.9732325,9.67549672 72.4615525,9.67549672 72.5997925,9.49117672 C72.7380325,9.30685672 72.4154725,8.61565672 72.1159525,8.33917672 C71.5667193,7.87840735 70.8342976,7.69956017 70.1345125,7.85533672 L69.3281125,7.85533672 C69.1898725,7.83229672 69.1437925,7.94749672 68.8673125,8.08573672 L68.9364325,8.08573672 Z" id="Shape"></path>
                        <path d="M7.4426725,24.2598167 C9.5853925,24.2598167 12.8801125,24.0524567 14.7002725,24.2598167 L14.9537125,24.2598167 C14.9537125,24.2598167 14.9537125,24.4441367 14.9537125,24.4441367 C14.9537125,24.4441367 15.8753125,24.4441367 15.9905125,24.6054167 C16.1493215,25.1215626 16.2422185,25.6557204 16.2669925,26.1951767 C16.3245935,26.6618862 16.3245935,27.1339073 16.2669925,27.6006167 C16.278488,27.8001313 16.278488,28.0001422 16.2669925,28.1996567 C16.2669925,28.6604567 15.4836325,28.5913367 14.5850725,28.5682967 C13.6865125,28.5452567 11.5437925,28.2918167 10.6682725,28.2918167 C10.2011135,28.2420635 9.72999154,28.2420635 9.2628325,28.2918167 C8.9863525,28.5222167 9.2628325,29.7433367 9.2628325,30.0198167 C9.2628325,30.2962967 9.2628325,30.3193367 9.2628325,30.4806167 C9.25612064,30.7878959 9.31095691,31.0934122 9.4241125,31.3791767 C9.42968996,31.4943092 9.42968996,31.6096442 9.4241125,31.7247767 C9.5623525,31.9090967 10.4378725,31.9551767 10.8986725,32.0012567 L12.3732325,32.1625367 C13.0156697,32.0793327 13.6661553,32.0793327 14.3085925,32.1625367 C14.7924325,32.3238167 14.7924325,32.4390167 14.9306725,33.1993367 C15.0228905,33.8102764 15.0228905,34.4315971 14.9306725,35.0425367 C14.9306725,35.3650967 14.9306725,35.7337367 14.9306725,35.8258967 C14.4647382,35.8949654 13.9911668,35.8949654 13.5252325,35.8258967 C12.4432609,35.6880815 11.3460845,35.7269884 10.2765925,35.9410967 C10.1175191,35.9878549 9.96323056,36.0495703 9.8157925,36.1254167 C9.78528155,36.966757 9.84709071,37.8089068 10.0001125,38.6367767 C10.0001125,38.8210967 10.0001125,38.9362967 10.0001125,39.0745367 C10.0415886,39.3778076 10.1031642,39.6779884 10.1844325,39.9730967 C10.1844325,40.5490967 10.1844325,41.1942167 10.3457125,42.0466967 C10.4151816,42.7746431 10.4151816,43.5075503 10.3457125,44.2354967 C9.44246571,44.3396613 8.53023929,44.3396613 7.6269925,44.2354967 C7.6269925,44.2354967 7.4196325,44.2354967 7.3735525,44.2354967 C7.3274725,44.2354967 7.3735525,44.0972567 7.2583525,44.0742167 C7.1431525,44.0511767 6.1524325,44.0742167 6.0372325,44.0742167 C5.79623112,43.3315972 5.70997669,42.5474661 5.7837925,41.7702167 C5.7837925,41.2402967 5.7837925,40.1343767 5.7837925,39.3279767 C5.7837925,38.5215767 5.6225125,38.1990167 5.6225125,37.7612567 C5.6225125,37.3234967 5.6225125,36.9087767 5.6225125,36.7935767 C5.58340225,36.4992273 5.52957483,36.2070213 5.4612325,35.9180567 C5.2769125,34.3282967 5.4612325,32.7615767 5.4612325,31.3100567 C5.4612325,29.8585367 5.5764325,28.2226967 5.4612325,26.7020567 C5.4612325,26.4025367 5.2999525,25.8726167 5.2769125,25.6422167 C5.2579584,25.4352899 5.2579584,25.2270636 5.2769125,25.0201367 C5.32336256,24.6747668 5.61964687,24.4179871 5.9681125,24.4210967 L6.1293925,24.4210967 C6.1985125,24.2137367 6.7284325,24.2598167 7.4426725,24.2598167 Z" id="Path"></path>
                        <path d="M25.3677925,25.7343767 C25.3677925,25.7343767 25.3677925,25.8726167 25.3677925,25.9186967 C25.3677925,25.9647767 26.1741925,25.9186967 26.5889125,25.9186967 C27.0036325,25.9186967 26.9345125,26.1260567 27.0957925,26.1721367 C27.2570725,26.2182167 27.8561125,26.4255767 28.2477925,26.6098967 C29.5631554,27.3611588 30.6104852,28.5051652 31.2429925,29.8815767 C31.4787844,30.4129462 31.6789076,30.9594367 31.8420325,31.5174167 C32.107982,32.2212058 32.316033,32.9455314 32.4641125,33.6831767 C32.4641125,33.6831767 32.4641125,33.7983767 32.4641125,33.8674967 C32.4820405,33.9276289 32.4820405,33.9916845 32.4641125,34.0518167 C32.4641125,34.2361367 32.6484325,34.2822167 32.6484325,34.3974167 C32.6484325,34.5126167 32.6484325,34.6278167 32.6484325,34.8351767 C32.6860764,35.3064712 32.7475954,35.7755535 32.8327525,36.2406167 C32.8327525,37.2313367 32.8327525,38.1990167 32.8327525,39.2127767 C32.8095448,39.4194874 32.8095448,39.6281461 32.8327525,39.8348567 C32.8327525,39.8348567 32.9940325,40.1343767 32.9940325,40.1804567 C32.9940325,40.2265367 32.8557925,40.4108567 32.8327525,40.6873367 C32.8097125,40.9638167 32.8327525,40.6873367 32.8327525,40.8025367 C32.8327525,40.9177367 32.6714725,41.8623767 32.6484325,42.3692567 C32.6253925,42.8761367 32.6484325,43.1065367 32.6484325,43.5903767 C32.5101925,44.6271767 32.6484325,44.7423767 31.5194725,44.8345367 C30.8282725,44.8345367 30.1831525,44.8345367 29.3997925,44.8345367 C28.6164325,44.8345367 28.3169125,44.8345367 28.2708325,44.0281367 C28.2708325,43.7516567 28.5012325,43.4290967 28.2708325,43.3138967 C28.0404325,43.1986967 27.4183525,43.5673367 27.3722725,43.5903767 C25.9683623,44.1791926 24.4419545,44.416458 22.9255525,44.2815767 L22.1191525,44.2815767 C21.274704,44.1633747 20.4519827,43.9227676 19.6769125,43.5673367 C19.2770107,43.4429836 18.9185651,43.2119853 18.6401125,42.8991767 C18.6401125,42.8991767 18.4097125,42.8991767 18.3175525,42.7148567 C18.0823805,42.4770842 17.8737918,42.2144169 17.6954725,41.9314967 C17.3938899,41.6519613 17.1781202,41.2923451 17.0733925,40.8946967 C16.762284,39.7402493 16.762284,38.5240241 17.0733925,37.3695767 C17.2640043,36.921391 17.5288382,36.5085616 17.8567525,36.1484567 C17.8567525,36.1484567 17.8567525,35.8719767 18.0410725,35.8028567 C18.2325767,35.6460657 18.4325587,35.4999251 18.6401125,35.3650967 C18.902692,35.0902893 19.2057063,34.8572014 19.5386725,34.6738967 C20.2482296,34.3077828 20.9791471,33.9846404 21.7274725,33.7062167 C22.4736967,33.462776 23.2479641,33.3156652 24.0314725,33.2684567 C24.9418594,33.198502 25.8575783,33.2605846 26.7501925,33.4527767 C26.9345125,33.4527767 27.6948325,33.6140567 27.7869925,33.4527767 C27.8791525,33.2914967 27.4644325,32.0934167 27.3722725,31.8630167 C27.0983418,31.2627429 26.6265984,30.7747325 26.0359525,30.4806167 L25.5521125,30.2041367 C24.7197906,30.0773839 23.8730744,30.0773839 23.0407525,30.2041367 C22.5629801,30.3220256 22.1103249,30.52494 21.7044325,30.8031767 L20.9210725,31.4943767 C20.9210725,31.4943767 20.9210725,31.6556567 20.9210725,31.6786967 C20.6576679,31.7548621 20.3780771,31.7548621 20.1146725,31.6786967 C20.1146725,31.6786967 19.9303525,31.4252567 19.7690725,31.3330967 C19.6077925,31.2409367 19.5847525,31.3330967 19.5156325,31.3330967 C19.4602388,31.2658942 19.398515,31.2041705 19.3313125,31.1487767 L18.8935525,30.9644567 C18.8935525,30.9644567 18.8935525,30.8492567 18.7322725,30.7801367 C18.5709925,30.7110167 18.2484325,30.4575767 17.9258725,30.2502167 C17.7581224,30.1077214 17.6176083,29.9359819 17.5111525,29.7433367 C17.5111525,29.4898967 17.9028325,29.0521367 18.1101925,28.7756567 C18.161068,28.655126 18.2227602,28.5394531 18.2945125,28.4300567 C18.6288989,28.0973806 18.9999057,27.8036669 19.4004325,27.5545367 L20.0225125,27.1167767 L20.6445925,26.7711767 C20.8980325,26.6329367 21.1745125,26.6098967 21.4279525,26.4946967 C21.6813925,26.3794967 21.8887525,26.1951767 22.0269925,26.1490967 C22.5328767,26.104164 23.0417483,26.104164 23.5476325,26.1490967 C23.5476325,26.1490967 23.5476325,26.0338967 23.7089125,26.0338967 C23.8701925,26.0338967 25.0221925,25.5039767 25.3677925,25.7343767 Z M23.0637925,37.0239767 C22.9255525,37.0239767 22.7642725,37.2313367 22.6029925,37.2774167 C22.4417125,37.3234967 21.8196325,37.5999767 21.5661925,37.9916567 C21.4873699,38.1537799 21.4255985,38.3236512 21.3818725,38.4985367 C21.3818725,38.7519767 21.1975525,38.8441367 21.1975525,39.0284567 C21.2569159,39.4499903 21.480528,39.830959 21.8196325,40.0882967 C22.1454299,40.3713355 22.5315684,40.5762253 22.9485925,40.6873367 C23.6195231,40.8025405 24.3051819,40.8025405 24.9761125,40.6873367 C25.1604325,40.6873367 25.2756325,40.5260567 25.5060325,40.4338967 C25.7364325,40.3417367 25.9898725,40.4338967 26.1972325,40.4338967 C26.44554,40.2967605 26.6841769,40.1428013 26.9114725,39.9730967 C27.2801125,39.7657367 27.6717925,39.5583767 27.9482725,39.3740567 C28.3244818,39.0743462 28.5308659,38.6099818 28.5012325,38.1298967 C28.5012325,37.9455767 28.1786725,37.9455767 27.7639525,37.7151767 C27.5528764,37.5522141 27.3294875,37.4058558 27.0957925,37.2774167 C27.0957925,37.2774167 26.7501925,37.2774167 26.5428325,37.1622167 L25.5521125,36.9548567 C25.3217125,36.9548567 25.2065125,36.7705367 25.0221925,36.7705367 C24.7015785,36.7204292 24.3751265,36.7204292 24.0545125,36.7705367 C24.0545125,36.7705367 24.0545125,36.9318167 23.8701925,36.9548567 C23.6858725,36.9778967 23.2481125,36.9778967 23.0177125,37.0239767 L23.0637925,37.0239767 Z" id="Shape"></path>
                        <path d="M42.4865125,27.3471767 C42.7272926,27.4109036 42.959405,27.5037485 43.1777125,27.6236567 C44.5200584,28.0449798 45.7121479,28.8450399 46.6106725,29.9276567 C47.3249125,30.8031767 46.6106725,31.0105367 45.8273125,31.6095767 C45.3204325,31.9321367 44.9748325,32.3468567 44.4449125,32.2777367 C43.9149925,32.2086167 43.9841125,31.9090967 43.5463525,31.6095767 C43.1085925,31.3100567 43.0164325,31.4022167 42.7629925,31.2409367 C42.5106172,31.1220992 42.2355349,31.0592232 41.9565925,31.0566167 C41.4347421,30.9553638 40.8948404,31.0903393 40.4820325,31.4252567 C40.266507,31.5481564 40.0655531,31.6950073 39.8829925,31.8630167 C39.3314217,32.3173708 38.9298984,32.9276863 38.7309925,33.6140567 C38.3304179,34.7470528 38.3304179,35.9831406 38.7309925,37.1161367 C38.8989488,37.6238412 39.1651201,38.0935554 39.5143525,38.4985367 C39.7217125,38.7980567 39.7447525,38.9362967 40.0442725,39.1206167 L40.2977125,39.1206167 C40.4589925,39.1206167 40.5741925,39.4431767 40.6433125,39.4662167 C40.7124325,39.4892567 41.0810725,39.4662167 41.2653925,39.4662167 C41.4497125,39.4662167 41.2653925,39.6505367 41.6109925,39.6505367 C41.9565925,39.6505367 41.9105125,39.6505367 41.9796325,39.6505367 C42.0487525,39.6505367 41.9796325,39.5122967 41.9796325,39.4662167 C41.9796325,39.4201367 42.5095525,39.4662167 42.8781925,39.3049367 C42.8781925,39.3049367 42.8781925,39.1206167 42.8781925,39.1206167 C43.1346088,39.0101644 43.3688149,38.854027 43.5693925,38.6598167 C43.9841125,38.3372567 44.2375525,37.7612567 44.6292325,37.8073367 C45.0209125,37.8534167 44.8135525,37.9686167 44.9748325,38.1529367 L45.2513125,38.5215767 C45.2513125,38.5215767 45.4817125,38.6367767 45.5969125,38.7750167 C45.8805587,39.0458908 46.1424846,39.3386315 46.3802725,39.6505367 C46.3802725,39.8118167 46.9793125,40.3417367 46.9793125,40.5260567 C46.9793125,40.7103767 46.1498725,41.6319767 45.6890725,42.0006167 C45.1895092,42.4312322 44.6308853,42.7881309 44.0301925,43.0604567 C43.7848529,43.1326374 43.5459479,43.2251167 43.3159525,43.3369367 C43.0855525,43.3369367 42.9703525,43.6134167 42.8090725,43.6594967 C41.8179716,43.8081904 40.8134665,43.8468252 39.8138725,43.7746967 C39.2783013,43.7256678 38.7634891,43.5435035 38.3162725,43.2447767 C38.1089125,43.1295767 37.7402725,43.0834967 37.5329125,42.9682967 C37.3255525,42.8530967 37.3255525,42.7378967 37.1873125,42.6226967 C36.0716511,41.7305364 35.2195068,40.5518696 34.7220325,39.2127767 C34.4699226,38.536655 34.2997492,37.8327561 34.2151525,37.1161367 C34.2151525,36.8857367 34.2151525,36.6553367 34.2151525,36.4018967 C34.2151525,36.1484567 34.0308325,36.1023767 34.0308325,35.9641367 C34.0308325,35.8258967 34.1921125,35.3650967 34.2151525,34.9964567 C34.2265436,34.3246364 34.2881553,33.6546084 34.3994725,32.9919767 C34.3994725,32.8537367 34.5377125,32.7846167 34.5607525,32.6233367 C34.5491951,32.4545744 34.5491951,32.2852191 34.5607525,32.1164567 C34.5607525,31.9090967 34.8602725,31.5404567 34.9985125,31.2178967 C34.9798584,31.080286 34.9798584,30.9407874 34.9985125,30.8031767 C34.9985125,30.8031767 35.1828325,30.8031767 35.1828325,30.8031767 C35.1757802,30.7188439 35.1757802,30.6340695 35.1828325,30.5497367 C35.3623777,30.2101205 35.570488,29.8863933 35.8049125,29.5820567 C36.1049144,29.0557534 36.5229087,28.6062123 37.0260325,28.2687767 C37.1873125,28.1535767 37.4407525,27.9692567 37.7172325,27.8079767 C38.0818074,27.6153224 38.468719,27.4682959 38.8692325,27.3702167 C39.0074725,27.3702167 39.1687525,27.3702167 39.3069925,27.3702167 C39.4452325,27.3702167 39.3069925,27.2319767 39.5604325,27.2089367 C39.8138725,27.1858967 40.0442725,27.2089367 40.2746725,27.2089367 C41.0147782,27.1499672 41.7595089,27.1965129 42.4865125,27.3471767 L42.4865125,27.3471767 Z" id="Path"></path>
                        <path d="M55.3197925,21.9558167 C55.540501,22.2303533 55.6622524,22.5712572 55.6653925,22.9234967 C55.6653925,23.5686167 55.6653925,24.0754967 55.6653925,24.8588567 C55.6653925,25.2505367 55.6653925,25.4809367 55.6653925,25.5730967 C55.6653925,25.6652567 57.0708325,25.6882967 57.5777125,25.5730967 C58.0845925,25.4578967 58.7297125,25.5730967 59.8817125,25.5730967 C61.0337125,25.5730967 65.4113125,25.2505367 66.4711525,25.2274967 L68.7751525,25.2274967 C69.5412981,25.1520208 70.3130069,25.1520208 71.0791525,25.2274967 C71.0791525,25.2274967 71.2173925,25.5039767 71.2404325,25.5730967 C71.2634725,25.6422167 71.2404325,25.8265367 71.2404325,25.8265367 C71.343723,26.4675222 71.343723,27.1209112 71.2404325,27.7618967 C71.2404325,28.4070167 71.2404325,28.6374167 70.5722725,28.7065367 C69.9041125,28.7756567 58.6145125,28.9369367 58.0154725,29.1673367 C57.3356663,29.2163106 56.6588967,29.3009068 55.9879525,29.4207767 C55.8351204,30.1787159 55.7732432,30.9521798 55.8036325,31.7247767 C55.8036325,32.5542167 55.8036325,35.1116567 55.9879525,36.0793367 C56.1031525,37.7842967 55.9879525,40.4799767 55.9879525,42.5535767 C56.0118365,42.8756946 56.0118365,43.1991388 55.9879525,43.5212567 C55.9916225,43.8208065 55.93684,44.118197 55.8266725,44.3967767 C55.5352951,44.4200142 55.2425299,44.4200142 54.9511525,44.3967767 C54.6516325,44.3967767 54.3981925,44.3967767 54.1677925,44.3967767 C53.6157161,44.440986 53.0609889,44.440986 52.5089125,44.3967767 C52.5089125,44.3967767 52.2554725,43.6594967 52.2324325,43.5212567 C52.2077918,43.137652 52.2077918,42.7528614 52.2324325,42.3692567 C52.2324325,41.1250967 52.2324325,39.7657367 52.2324325,38.4294167 C52.2553521,38.0226994 52.2553521,37.6150141 52.2324325,37.2082967 C52.2324325,37.0930967 52.0941925,36.5631767 52.0711525,36.2636567 C52.0481125,35.9641367 52.0711525,35.1577367 52.0711525,34.4895767 L52.0711525,33.6831767 C52.1171573,32.8774329 52.1171573,32.0697206 52.0711525,31.2639767 C52.0711525,31.2639767 52.0711525,31.1487767 52.0711525,31.0105367 C52.1212796,30.60504 52.1212796,30.1949134 52.0711525,29.7894167 C51.0799324,29.6200833 50.0671726,29.6200833 49.0759525,29.7894167 C49.0759525,29.7894167 48.7764325,29.7894167 48.7073125,29.7894167 C48.6381925,29.7894167 48.7073125,29.9276567 48.7073125,29.9506967 C48.1773925,30.0889367 48.0161125,29.9506967 47.8317925,29.5129367 C47.6474725,29.0751767 47.8317925,29.5129367 47.8317925,29.2594967 C47.8317925,29.0060567 47.6474725,29.1212567 47.6474725,29.0982167 C47.6243563,28.6915049 47.6243563,28.2838085 47.6474725,27.8770967 C47.6115314,27.4323817 47.6115314,26.9854917 47.6474725,26.5407767 C47.8787755,26.272271 48.1965976,26.0929867 48.5460325,26.0338967 C49.2833125,25.8495767 50.3892325,26.0338967 51.2647525,25.9186967 C51.5601282,25.8863131 51.8527459,25.8324099 52.1402725,25.7574167 C52.1716494,25.5666986 52.1716494,25.3721348 52.1402725,25.1814167 C52.1402725,24.9049367 51.9789925,24.5593367 51.9559525,24.2367767 C51.9559525,23.4994967 51.9559525,22.0710167 52.2093925,21.7945367 C53.2483104,21.6877567 54.2974899,21.7421586 55.3197925,21.9558167 Z M71.4477925,31.5865367 C71.7627779,31.7619843 72.0632526,31.9623008 72.3463525,32.1855767 C72.6116588,32.3697172 72.865564,32.5697637 73.1066725,32.7846167 C73.185755,32.8935384 73.2551404,33.0091807 73.3140325,33.1302167 C73.4983525,33.4297367 73.8669925,33.6601367 74.0973925,33.9596567 L74.2817125,34.5126167 C74.6754667,35.5575274 74.9686349,36.6376206 75.1572325,37.7382167 C75.2034081,38.2440451 75.2034081,38.7530283 75.1572325,39.2588567 C75.1572325,40.2034967 75.1572325,39.2588567 74.8577125,40.1113367 C74.8577125,40.2726167 74.6273125,40.4338967 74.5812325,40.6182167 C74.4671017,40.8657916 74.3671011,41.1196391 74.2817125,41.3785367 C73.877311,42.3629477 73.1446337,43.1770335 72.2081125,43.6825367 C71.9509719,43.924594 71.6645936,44.1335728 71.3556325,44.3046167 L70.3879525,44.5580567 C69.7158858,44.7832296 69.0200865,44.9301205 68.3143525,44.9958167 C67.5017413,45.0649753 66.6847237,45.0649753 65.8721125,44.9958167 C65.4858585,44.9849095 65.1008778,44.9464114 64.7201125,44.8806167 C64.5126642,44.8158227 64.3120336,44.7309405 64.1210725,44.6271767 C63.527979,44.4908746 62.9493286,44.2979911 62.3930725,44.0511767 C62.3930725,44.0511767 62.3930725,43.8898967 62.3930725,43.8668567 C61.8163739,43.6153456 61.3272573,43.1983937 60.9876325,42.6687767 C60.7749845,42.4072223 60.5824348,42.1299506 60.4116325,41.8393367 C60.2733925,41.6550167 60.0660325,41.5628567 59.9969125,41.3785367 C59.9277925,41.1942167 59.9969125,41.1711767 59.9969125,41.1481367 C59.9381195,41.0712385 59.8914952,40.9857606 59.8586725,40.8946967 C59.8586725,40.7103767 59.8586725,40.4799767 59.8586725,40.2726167 C59.8586725,40.0652567 59.6052325,40.0191767 59.5821925,39.8809367 C59.4623464,39.3043871 59.392964,38.7184915 59.3748325,38.1298967 C59.1905125,36.9548567 59.1674725,37.9686167 59.3748325,36.7014167 C59.3606826,36.656423 59.3606826,36.6081705 59.3748325,36.5631767 C59.3748325,36.5631767 59.3748325,36.4479767 59.3748325,36.3788567 C59.3748325,36.3097367 59.5361125,36.1484567 59.5821925,36.0562967 C59.5661079,35.7646783 59.5661079,35.4723951 59.5821925,35.1807767 C59.5821925,35.0194967 59.8817125,34.8812567 59.9969125,34.6738967 C60.1121125,34.4665367 59.9969125,34.1439767 60.2042725,33.9826967 C60.4116325,33.8214167 60.3885925,33.9826967 60.4807525,33.8214167 C60.5729125,33.6601367 60.4807525,33.6140567 60.4807525,33.5449367 C60.4807525,33.4758167 60.7341925,33.5449367 60.7802725,33.3606167 C60.8263525,33.1762967 60.7802725,33.1993367 60.8954725,33.1071767 C61.0106725,33.0150167 61.2410725,32.6924567 61.6097125,32.4620567 C62.2781988,31.904908 63.0669017,31.5105565 63.9137125,31.3100567 C64.7706856,31.0309972 65.6491702,30.8229351 66.5402725,30.6879767 C68.1922088,30.626122 69.8371758,30.9330775 71.3556325,31.5865367 L71.4477925,31.5865367 Z M65.6877925,34.6508567 C65.5182699,34.6879813 65.3552077,34.7501002 65.2039525,34.8351767 C65.054171,34.899132 64.9144728,34.9845031 64.7892325,35.0886167 C64.6509925,35.0886167 64.3745125,35.0886167 64.3053925,35.2498967 C64.2520704,35.4066208 64.1905455,35.560433 64.1210725,35.7106967 C64.1210725,35.7106967 63.9828325,35.7106967 63.9137125,35.8489367 C63.8445925,35.9871767 63.9137125,35.9871767 63.9137125,36.1023767 C63.5488823,36.8116764 63.4120853,37.6163648 63.5220325,38.4063767 C63.5220325,39.9961367 64.1210725,39.9039767 64.6509925,40.3647767 C65.0409559,40.6873633 65.4858114,40.9371067 65.9642725,41.1020567 C66.6137639,41.1950054 67.2731811,41.1950054 67.9226725,41.1020567 C68.2844224,40.9956714 68.6385193,40.8648096 68.9825125,40.7103767 L69.3281125,40.5951767 C69.4672741,40.4456968 69.6308974,40.3210314 69.8119525,40.2265367 C70.4109925,39.7657367 70.3879525,39.6044567 70.5722725,38.7750167 C70.7565925,37.9455767 70.5722725,37.3695767 70.5722725,37.5999767 C70.6055704,37.3244993 70.6055704,37.0460142 70.5722725,36.7705367 C70.5722725,36.5631767 70.1575525,36.2866967 70.0884325,36.1484567 C70.0193125,36.0102167 69.2589925,35.1116567 68.8673125,34.9734167 C68.6562849,34.8552094 68.4320038,34.7624034 68.1991525,34.6969367 C67.9457125,34.6969367 67.6231525,34.6969367 67.3005925,34.6969367 C66.9780325,34.6969367 67.1393125,34.5356567 67.0241125,34.5126167 C66.7873437,34.4676356 66.5422945,34.5084771 66.3329125,34.6278167 C66.3329125,34.6278167 66.3329125,34.7660567 66.3329125,34.7660567 C66.0846947,34.7454976 65.8382908,34.706997 65.5956325,34.6508567 L65.6877925,34.6508567 Z" id="Shape"></path>
                    </g>
                    <g id="Group-16" transform="translate(0.167940, 0.478182)">
                        <path d="M27.4377465,0.0133928801 C27.5674593,0.0174706934 27.6968968,0.0278587385 27.8255998,0.0445201541 C30.9027799,0.442880736 33.9300219,1.15623831 36.887128,2.18300587 L37.6249317,2.44622622 L38.3418044,2.71637573 C38.9886202,2.96012473 39.5332187,3.35188411 39.953599,3.83747556 L40.1053759,4.02386492 L40.184,4.132 L40.2764684,4.12982556 C40.7523756,4.12681396 41.2312072,4.2086352 41.6895645,4.37849304 L41.9169286,4.47077317 L42.112562,4.5636245 C47.9571261,7.53278805 50.7799244,11.2931979 53.337608,18.4341679 L53.493893,18.875616 L53.5609144,19.0854688 C55.0873717,24.3621984 54.6928143,30.009302 52.4474104,35.0224955 C52.3728932,35.1888659 52.28709,35.3499476 52.1906008,35.5046141 C51.4065188,36.7614515 50.6241297,37.7164496 49.7312551,38.5011179 C49.2336741,38.9383976 48.7537577,39.284736 48.1651156,39.6517461 L46.6077564,40.5857653 C46.4326038,40.6962977 46.2629536,40.8084677 46.0934591,40.926743 L45.809,41.131 L45.7768591,41.3418357 C45.3151649,44.0675911 43.5067206,46.2995551 41.0885529,47.3763098 L40.8271639,47.4872258 L40.72,47.528 L40.7305005,47.6328069 C40.8146028,48.621597 40.7310956,49.578438 40.3089467,50.4860759 C40.6401622,51.2276643 40.8350263,52.0444931 40.8302233,52.8729424 L40.818,53.186 L40.8963433,53.4406658 C41.2359442,54.6630434 41.1300721,55.9675079 40.5977946,57.1191227 L40.4772155,57.3634721 L40.3436249,57.6026287 C40.2811817,57.7080014 40.2139316,57.8104504 40.142087,57.9096518 C39.3937216,58.942978 38.5303365,59.8863003 37.5429545,60.7414546 C37.6058055,61.3893255 37.5097519,62.0559487 37.2461077,62.6791349 L37.0106951,63.1848942 C36.9761082,63.2620573 36.9386349,63.3481454 36.9004928,63.4393754 L36.785,63.727 L36.8022334,63.8967048 C36.8548067,64.6225734 36.7213464,65.3714401 36.3589807,66.0847706 L36.2296553,66.321151 L36.097076,66.5333527 C35.4974783,67.4373127 34.8112663,67.8884715 33.9599617,68.2463873 L33.7720049,68.3168441 C33.2009744,68.5185662 31.7792329,68.9606939 31.1141744,69.2052964 L30.9838295,69.2545282 C27.9729876,70.4294909 25.7251968,70.4007032 24.0819195,67.8978111 L23.981,67.739 L23.8877621,67.692374 L23.8143436,67.6623069 L23.7394213,67.635916 L23.5856007,67.5944304 C22.1422237,67.281913 21.2016491,66.3840067 20.748777,65.2994063 C19.6760184,65.2480897 18.6048235,65.1465062 17.5383611,64.9963485 C16.4734499,64.8464092 15.5137715,64.2739832 14.8758362,63.4082139 C14.1089107,62.3673864 13.7118134,61.0676428 13.766946,59.8142251 L13.785712,59.5464559 L13.801,59.408 L13.6728597,59.2823009 C12.8619393,58.4497263 12.3660989,57.3500547 12.259957,56.2065143 L12.2432043,55.9608798 L12.2384596,55.7434177 C12.2384596,54.7233244 12.5502317,53.7762008 13.0986724,53.0017545 C11.7986595,51.9487989 11.0721407,50.9350837 11.0730096,49.0250444 C11.0813009,48.6446848 11.0842684,48.264279 11.0819156,47.8839387 L11.074,47.302 L11.0315823,47.2774574 C10.5365887,46.9788003 10.0728813,46.6256072 9.64984231,46.2224074 L9.40097417,45.9745231 L9.19576849,45.7526632 C8.07255585,44.491209 7.386363,42.914775 7.21781297,41.2557394 L7.19102875,40.9228997 L7.185,40.777 L6.39174183,40.1611492 C6.01741891,39.8679036 5.60056092,39.5370464 5.29145089,39.2795358 L5.05738127,39.0802313 C1.8564408,36.2712246 0.106396752,32.5821009 0.0165058881,27.0171595 L0.013,26.592 L0.00263277328,26.1865115 C-0.0615671279,21.7321774 1.05198916,17.3410836 3.25104484,13.4165811 L3.50959409,12.9658474 L3.77774646,12.5193929 C8.90400428,4.46660008 17.8964667,-0.2865586 27.4377465,0.0133928801 Z M33.0720596,60.6034177 C30.4339623,62.2124669 27.4929684,63.2614214 24.4320596,63.6850177 C25.348497,63.8834431 26.2002569,64.3093231 26.9088596,64.9234177 L27.0204951,65.057905 C27.3975811,65.5486589 27.4063404,65.9583425 27.9388727,65.9665538 L28.0261674,65.964542 C28.2709112,65.9502826 28.6139799,65.8639107 29.1192737,65.6824763 L30.0175278,65.3446912 C32.0523045,64.6073524 33.049431,64.5901606 32.7552596,64.0018177 C32.5044596,63.5002177 33.1561596,61.9878177 33.4385867,61.3794219 L33.5616596,61.1218177 L33.0720596,60.6034177 Z M35.5200596,51.6178177 C33.3805944,53.3560664 30.9703089,54.7289267 28.3867061,55.6823519 L27.8304596,55.8802177 C25.4688596,56.8306177 19.7088596,55.0450177 17.0304596,55.0162177 C16.8507476,55.0162177 16.7049505,55.0516072 16.5897652,55.1122411 L16.5792498,55.120275 C15.987901,55.4426147 16.2276596,56.4461377 16.8288596,56.6866177 C19.372268,57.6149305 22.0566761,58.0743791 24.7523634,58.0490264 L25.2916128,58.0374871 C25.8309358,58.0194744 26.3703639,57.9820271 26.9088596,57.9250177 C28.5467272,57.4009001 30.7062136,56.9699286 32.3708555,56.5066139 L32.0207819,56.7460563 C31.3391846,57.2071564 30.642577,57.6485868 29.9328596,58.0690177 C28.833677,58.5549338 27.6897416,58.9273371 26.5188908,59.1815826 L25.954291,59.2946364 C25.4413447,59.3887301 24.9238446,59.4603181 24.4032596,59.5090177 C24.0576596,59.5332097 23.7211834,59.546619 23.3951748,59.5518334 L23.0727051,59.5544121 C20.8405383,59.554683 19.1432276,59.1956737 18.4416596,59.3650177 C17.6064596,59.5666177 17.6928596,60.4882177 18.0960596,61.0354177 C21.6498932,61.535797 25.2629149,61.4286723 28.7808596,60.7186177 C30.7666114,60.2841201 32.6400317,59.4405905 34.2816596,58.2418177 C34.5318963,58.0521621 34.7747717,57.8535092 35.0098374,57.6463175 L35.3618228,57.3231571 L35.6587378,57.032596 C36.1091849,56.5755837 36.5250453,56.084543 36.9024596,55.5634177 C37.1149697,55.2048073 37.1503985,54.7682842 36.9984995,54.3800978 C36.8820868,54.0825988 36.6656007,53.8389223 36.3902983,53.6869772 C36.5510953,53.5280714 36.6815072,53.371113 36.7584596,53.2018177 C37.0464596,52.5682177 36.2400596,50.7538177 35.5200596,51.6178177 Z M40.3008596,8.12981774 C39.2785816,9.06736347 38.3002944,10.0515594 37.3691002,11.0792264 L36.8160596,11.7010177 L36.8160596,12.3058177 L38.6304596,14.4082177 L37.1440062,16.5209929 L41.8320596,16.5218177 L41.8320596,40.5218177 L11.1776472,40.5216024 C11.1947313,41.4678 11.5493372,42.3808518 12.1831469,43.0926688 C12.8856453,43.8816285 13.8733382,44.3584525 14.9280596,44.4178177 C15.0581352,45.979022 15.1062013,47.5459762 15.0720596,49.1122177 C15.0720596,49.6594177 16.3968596,50.5234177 17.7216596,51.2722177 C17.7851371,51.3215892 17.8330692,51.2655965 17.8718008,51.1431564 L17.8978777,51.0468588 C17.9965766,50.6169651 18.0329739,49.7188463 18.1536596,49.2562177 C18.3264596,48.5938177 18.6432596,48.1042177 19.2768596,48.0754177 C19.6180288,48.0599101 20.0009495,47.9943006 20.3132139,47.9730119 L20.4423879,47.966877 C20.6148776,47.9628898 20.7566437,47.979385 20.8439794,48.0362762 L20.8896596,48.0754177 C21.0928461,48.232262 21.2015366,48.4822502 21.1776596,48.7378177 C20.9078306,49.6138292 20.7056368,50.5092591 20.5728596,51.4162177 C20.5266058,51.7023606 20.5266058,51.9940749 20.5728596,52.2802177 C21.0912596,52.4818177 22.3008596,52.6834177 22.7904596,52.8562177 C23.1769859,52.9926388 23.0788585,52.500805 23.0345815,51.9050494 L23.0328059,51.841695 C23.0209099,51.7022567 23.0155982,51.558276 23.0208596,51.4162177 C23.0496596,50.6386177 23.8848596,50.4082177 24.2592596,50.3218177 C24.6314439,50.1882536 25.011757,50.0789807 25.3977981,49.9946332 L25.7856596,49.9186177 L25.7995263,49.9190128 C25.8706374,49.9221733 26.1920596,49.9506177 26.2176596,50.2066177 C26.2873242,50.7496727 26.3012571,51.2980678 26.2594584,51.8432588 L26.2176596,52.2514177 C26.2176596,52.2514177 26.2176596,52.4498677 26.3334221,52.5573615 L26.3904596,52.5970177 C26.9527962,52.7081167 27.5291081,52.723988 28.0954376,52.6446316 L28.3776596,52.5970177 C28.3776596,52.5970177 29.0112596,52.5970177 29.0112596,52.2514177 C28.9728121,51.4892745 29.08034,50.7268041 29.3280596,50.0050177 C29.5354196,50.0050177 29.6494676,49.4684737 29.8801556,49.3191745 L29.9616596,49.2850177 C30.3458674,49.1162081 30.7399034,48.9710658 31.1415535,48.8503556 L31.5456596,48.7378177 L31.6576596,48.7452844 C31.7643263,48.7577289 31.9154374,48.790914 31.9628448,48.8794079 L31.9776596,48.9394177 L31.9776596,51.2722177 L32.3491442,51.1888473 C33.8271142,50.8278764 35.206587,50.1384053 36.3840596,49.1698177 C36.7296596,48.8472577 36.7250516,48.0270337 36.6946388,47.6233729 L36.66986,47.3784217 C36.514761,46.053303 37.3950679,45.6995283 37.7376596,44.0722177 C39.7943621,44.1044417 41.5313421,42.6097166 41.8420606,40.6177383 L41.8683372,40.4169211 L41.901316,40.0210027 C41.9807443,39.3857791 42.303776,38.8030157 42.8064596,38.3986177 C45.6864596,36.0658177 46.8384596,36.5266177 48.7968596,33.3874177 C50.655285,29.2382105 50.9818435,24.5643427 49.7184596,20.1970177 L49.4432341,19.425003 C47.5122249,14.1140888 45.4416596,10.7414541 40.3008596,8.12981774 Z M26.4728249,4.00027607 C18.6577001,4.03849318 11.3693768,8.0424717 7.1520596,14.6674177 C4.95925395,18.2374609 3.86735848,22.3746428 4.0128596,26.5618177 C4.0128596,34.9714177 8.4480596,36.2962177 10.4352596,38.3122177 C10.5911075,38.4726041 10.7246313,38.6505837 10.8339366,38.8413471 L10.8320596,16.5218177 L35.8400062,16.5209929 L35.9520596,15.9634177 L36.4704596,13.9762177 L35.1744596,12.9970177 L34.0512596,12.5938177 L36.9312596,6.45941774 L36.2143869,6.18926823 C33.3376792,5.13556179 30.3518949,4.4049438 27.3120596,4.01141774 L27.101911,4.00576689 L26.4728249,4.00027607 Z" id="Combined-Shape" fill="#000000"></path>
                        <path d="M33.0720596,60.6034177 L33.5616596,61.1218177 C33.5616596,61.1218177 32.4384596,63.3682177 32.7552596,64.0018177 C33.0720596,64.6354177 31.8912596,64.6066177 29.5296596,65.5282177 C27.1680596,66.4498177 27.6576596,65.7586177 26.9088596,64.9234177 C26.2002569,64.3093231 25.348497,63.8834431 24.4320596,63.6850177 C27.4929684,63.2614214 30.4339623,62.2124669 33.0720596,60.6034177 L33.0720596,60.6034177 Z M35.5200596,51.6178177 C36.2400596,50.7538177 37.0464596,52.5682177 36.7584596,53.2018177 C36.6815072,53.371113 36.5510953,53.5280714 36.3902983,53.6869772 C36.6656007,53.8389223 36.8820868,54.0825988 36.9984995,54.3800978 C37.1503985,54.7682842 37.1149697,55.2048073 36.9024596,55.5634177 C36.1657733,56.5806177 35.2826062,57.4831951 34.2816596,58.2418177 C32.6400317,59.4405905 30.7666114,60.2841201 28.7808596,60.7186177 C25.2629149,61.4286723 21.6498932,61.535797 18.0960596,61.0354177 C17.6928596,60.4882177 17.6064596,59.5666177 18.4416596,59.3650177 C19.2768596,59.1634177 21.5232596,59.7106177 24.4032596,59.5090177 C26.3120713,59.3304523 28.1794081,58.8441667 29.9328596,58.0690177 C30.7639851,57.5766656 31.577132,57.0555149 32.3708555,56.5066139 C30.7062136,56.9699286 28.5467272,57.4009001 26.9088596,57.9250177 C23.4983871,58.2860769 20.0505103,57.8624806 16.8288596,56.6866177 C16.1088596,56.3986177 15.9072596,55.0162177 17.0304596,55.0162177 C19.7088596,55.0450177 25.4688596,56.8306177 27.8304596,55.8802177 C30.6246006,54.9231853 33.2277754,53.480227 35.5200596,51.6178177 Z M7.1520596,14.6674177 C11.5199953,7.80586648 19.1822117,3.75583778 27.3120596,4.01141774 C30.6052145,4.43773763 33.8349345,5.25967237 36.9312596,6.45941774 L36.9312596,6.45941774 L34.0512596,12.5938177 L35.1744596,12.9970177 L36.4704596,13.9762177 L35.9520596,15.9634177 L35.7504596,16.9714177 L34.5120596,18.4690177 L36.7872596,17.0290177 L38.6304596,14.4082177 L36.8160596,12.3058177 L36.8160596,11.7010177 C37.9107392,10.4471038 39.074126,9.25487262 40.3008596,8.12981774 C45.6864596,10.8658177 47.7024596,14.4370177 49.7184596,20.1970177 C50.9818435,24.5643427 50.655285,29.2382105 48.7968596,33.3874177 C46.8384596,36.5266177 45.6864596,36.0658177 42.8064596,38.3986177 C42.2535077,38.8434555 41.9179344,39.5041154 41.8848596,40.2130177 L41.8848596,40.2130177 L41.8683372,40.4169211 C41.6467855,42.5083716 39.8629189,44.1055158 37.7376596,44.0722177 C37.3920596,45.7138177 36.4992596,46.0594177 36.6720596,47.4130177 C36.7008596,47.5858177 36.8160596,48.7666177 36.3840596,49.1698177 C35.1084642,50.2191209 33.5957993,50.9408499 31.9776596,51.2722177 L31.9776596,51.2722177 L31.9776596,48.9394177 C31.9776596,48.7378177 31.5456596,48.7378177 31.5456596,48.7378177 C31.0036861,48.8769339 30.4739367,49.0599383 29.9616596,49.2850177 C29.6736596,49.3426177 29.5584596,50.0050177 29.3280596,50.0050177 C29.08034,50.7268041 28.9728121,51.4892745 29.0112596,52.2514177 C29.0112596,52.5970177 28.3776596,52.5970177 28.3776596,52.5970177 C27.7216002,52.7266332 27.046519,52.7266332 26.3904596,52.5970177 C26.2176596,52.5106177 26.2176596,52.2514177 26.2176596,52.2514177 C26.3047404,51.5725991 26.3047404,50.8854364 26.2176596,50.2066177 C26.1888596,49.9186177 25.7856596,49.9186177 25.7856596,49.9186177 C25.2662023,50.0088311 24.7555054,50.1437322 24.2592596,50.3218177 C23.8848596,50.4082177 23.0496596,50.6386177 23.0208596,51.4162177 C22.9920596,52.1938177 23.2800596,53.0290177 22.7904596,52.8562177 C22.3008596,52.6834177 21.0912596,52.4818177 20.5728596,52.2802177 C20.5266058,51.9940749 20.5266058,51.7023606 20.5728596,51.4162177 C20.7056368,50.5092591 20.9078306,49.6138292 21.1776596,48.7378177 C21.2015366,48.4822502 21.0928461,48.232262 20.8896596,48.0754177 C20.6880596,47.8450177 19.9104596,48.0466177 19.2768596,48.0754177 C18.6432596,48.1042177 18.3264596,48.5938177 18.1536596,49.2562177 C17.9808596,49.9186177 17.9808596,51.4738177 17.7216596,51.2722177 C16.3968596,50.5234177 15.0720596,49.6594177 15.0720596,49.1122177 C15.1062013,47.5459762 15.0581352,45.979022 14.9280596,44.4178177 C13.8733382,44.3584525 12.8856453,43.8816285 12.1831469,43.0926688 C11.4806485,42.3037091 11.1211502,41.2675337 11.1840596,40.2130177 C11.1985843,39.5047959 10.9289139,38.8202478 10.4352596,38.3122177 C8.4480596,36.2962177 4.0128596,34.9714177 4.0128596,26.5618177 C3.86735848,22.3746428 4.95925395,18.2374609 7.1520596,14.6674177 Z M28.1760596,35.1442177 C26.5920596,33.4450177 25.6704596,35.5186177 25.0080596,36.3250177 C24.8064596,36.5842177 24.1152596,36.5842177 24.1152596,36.5842177 C23.7771224,36.8339942 23.5776011,37.229431 23.5776011,37.6498177 C23.5776011,38.0702045 23.7771224,38.4656413 24.1152596,38.7154177 C25.1520596,39.6658177 26.8512596,38.1970177 26.8512596,38.1970177 C26.8512596,38.1970177 28.0032596,39.2626177 28.8384596,39.2626177 L28.8384596,39.2626177 L28.8384596,39.3490177 C29.3078854,39.2160577 29.6753331,38.8500546 29.8101414,38.3811563 C29.9449496,37.9122579 29.8279927,37.4069885 29.5008596,37.0450177 L29.5008596,37.0450177 Z M35.6352596,22.1842177 C34.5387407,22.1423861 33.4579931,22.4554999 32.5536596,23.0770177 C31.2517479,23.8558554 30.4703287,25.2756171 30.5088596,26.7922177 C30.3370424,28.1730547 30.6309689,29.5717396 31.3440596,30.7666177 C31.7472596,31.4002177 32.4384596,31.8322177 32.8704596,32.5234177 C33.6480596,33.7618177 35.2032596,33.9346177 36.9024596,33.9346177 L36.9024596,33.9346177 L36.9024596,34.0210177 C40.2144596,33.9922177 41.2224596,30.9682177 40.6176596,27.7714177 C40.5060905,25.9578878 39.5453716,24.3033163 38.0256596,23.3074177 C37.3421154,22.7283595 36.5173153,22.3408029 35.6352596,22.1842177 Z M20.2848596,18.4978177 C18.6460909,18.3220851 17.0105465,18.8567824 15.7920596,19.9666177 C14.1463506,21.1776508 12.9830928,22.9327415 12.5088596,24.9202177 C12.3360596,25.9570177 12.3360596,26.0434177 12.0192596,27.5122177 C11.7024596,28.9810177 12.6816596,30.1330177 13.3728596,31.4578177 C14.0640596,32.7826177 15.3600596,33.0418177 16.6560596,33.5026177 C18.4416596,34.1650177 20.4576596,32.9266177 22.4736596,31.5154177 C23.2924977,30.7858114 24.0354755,29.9752902 24.6912596,29.0962177 C25.5500293,27.9565387 25.9692471,26.545513 25.8720596,25.1218177 C26.2821239,22.2599164 24.6382726,19.5001661 21.9264596,18.4978177 L21.9264596,18.4978177 Z" id="Combined-Shape" fill="#F9C90F" fill-rule="nonzero"></path>
                    </g>
                </g>
            </g>
        </g>
    </g>
</svg>